<?xml version="1.0" encoding="utf-8"?>
<!-- Generator: Adobe Illustrator 15.0.2, SVG Export Plug-In . SVG Version: 6.00 Build 0)  -->
<!DOCTYPE svg PUBLIC "-//W3C//DTD SVG 1.1//EN" "http://www.w3.org/Graphics/SVG/1.1/DTD/svg11.dtd">
<svg version="1.1" id="Layer_1" xmlns="http://www.w3.org/2000/svg" xmlns:xlink="http://www.w3.org/1999/xlink" x="0px" y="0px"
	 width="20px" height="20px" viewBox="0 0 20 20" enable-background="new 0 0 20 20" xml:space="preserve">
<g>
	<path fill="#F00776" d="M19,0H1C0.448,0,0,0.448,0,1v2c0,0.552,0.448,1,1,1h18c0.553,0,1-0.448,1-1V1C20,0.448,19.553,0,19,0z"/>
	<path fill="#F00776" d="M19,16H1c-0.552,0-1,0.447-1,1v2c0,0.553,0.448,1,1,1h18c0.553,0,1-0.447,1-1v-2C20,16.447,19.553,16,19,16
		z"/>
	<path fill="#F00776" d="M19,8H1C0.448,8,0,8.447,0,9v2c0,0.553,0.448,1,1,1h18c0.553,0,1-0.447,1-1V9C20,8.447,19.553,8,19,8z"/>
</g>
</svg>
