<?xml version="1.0" encoding="utf-8"?>
<svg version="1.1" id="Layer_1" xmlns="http://www.w3.org/2000/svg" xmlns:xlink="http://www.w3.org/1999/xlink" x="0px" y="0px"
	 viewBox="0 0 30 30" style="enable-background:new 0 0 30 30;" xml:space="preserve">
<style type="text/css">
	.st0{fill:#FFFFFF;}
	.st1{fill:#FD0B7C;}
</style>
<path class="st0" d="M10.9,30h11.8v-0.6c0-0.7,0.5-2.3,1-3.9c0.7-2.1,1.4-4.4,1.4-5.8v-4.2l0-0.1c-0.7-1.9-2.4-2.6-3.8-2.7
	c-1-1.3-2.6-1.5-3.6-1.5c-0.7-0.7-1.7-1.1-3.2-1.2V5.3c0-1.3-1.1-2.4-2.4-2.4c-1.3,0-2.4,1.1-2.4,2.4v9.1v1.5C9,15.2,8,14.5,7,14.4
	c-0.6,0-1.1,0.1-1.5,0.5c-1.4,1.2,0,3.2,1.6,5.7c1.7,2.6,3.8,5.7,3.8,8.8V30z M8.1,19.9c-1.2-1.8-2.4-3.7-1.9-4.2
	c0.2-0.1,0.4-0.2,0.6-0.2c1,0.1,2.3,1.4,2.8,2v1.3c0,0.3,0.3,0.6,0.6,0.6h0c0.3,0,0.6-0.3,0.6-0.6v-4.4V5.3c0-0.6,0.5-1.2,1.2-1.2
	c0.6,0,1.2,0.5,1.2,1.2v5.6v0.3v4.1c0,0.3,0.3,0.6,0.6,0.6c0.3,0,0.6-0.3,0.6-0.6v-4.1c1.3,0.1,2,0.4,2.4,0.8v3.3
	c0,0.3,0.3,0.6,0.6,0.6c0.3,0,0.6-0.3,0.6-0.6v-2.9c0.8,0,1.8,0.2,2.4,1.1v3.1c0,0.3,0.3,0.6,0.6,0.6c0.3,0,0.6-0.3,0.6-0.6v-2.6
	c0.7,0.1,1.8,0.5,2.4,1.8v4c0,1.3-0.7,3.5-1.3,5.4c-0.5,1.5-0.9,2.8-1,3.7h-9.5C11.8,25.6,9.8,22.5,8.1,19.9z"/>
<path class="st1" d="M9,9.3c0.2-0.2,0.2-0.6,0-0.8c-0.8-0.8-1.3-1.9-1.3-3c0-2.4,1.9-4.3,4.3-4.3s4.3,1.9,4.3,4.3
	c0,1.1-0.4,2.2-1.3,3c-0.2,0.2-0.2,0.6,0,0.8c0.1,0.1,0.3,0.2,0.4,0.2c0.1,0,0.3-0.1,0.4-0.2c1-1,1.6-2.4,1.6-3.9
	c0-3-2.4-5.5-5.5-5.5c-3,0-5.5,2.4-5.5,5.5c0,1.5,0.6,2.8,1.6,3.9C8.4,9.5,8.8,9.5,9,9.3z"/>
</svg>
