<?xml version="1.0" encoding="utf-8"?>
<!-- Generator: Adobe Illustrator 19.2.1, SVG Export Plug-In . SVG Version: 6.00 Build 0)  -->
<svg version="1.1" id="Layer_1" xmlns="http://www.w3.org/2000/svg" xmlns:xlink="http://www.w3.org/1999/xlink" x="0px" y="0px"
	 viewBox="0 0 100 13.8" style="enable-background:new 0 0 100 13.8;" xml:space="preserve">
<style type="text/css">
	.st0{fill:#F00776;}
	.st1{fill:#3247D7;}
</style>
<g>
	<g>
		<path class="st0" d="M5.5,10.8c0,0.2-0.5,0.4-0.8,0.5c-0.3,0.1-0.5,0.2-0.8,0.2c-0.4,0-0.8-0.1-1-0.4c-0.2-0.3-0.4-0.6-0.4-1.1
			V4.3H0v5.9c0,0.5,0,1,0.1,1.4c0.1,0.4,0.3,0.8,0.6,1.1c0.3,0.3,0.6,0.6,1,0.7c0.4,0.2,0.8,0.3,1.3,0.3c0.3,0,0.6,0,0.8-0.1
			c0.3-0.1,0.5-0.1,0.7-0.2C4.8,13.3,5,13.1,5.2,13c0.2-0.1,0.4-0.3,0.6-0.5l0.2,0.7c0.1,0.3,0.3,0.6,0.7,0.6h1.9V4.3h-3V10.8z"/>
		<path class="st0" d="M15,3.3l2.1-3h-1.9c-0.1,0-0.2,0.1-0.3,0.1c-0.1,0-0.2,0.1-0.2,0.2L14,1.4c0,0-0.1,0.1-0.1,0.1
			c0,0-0.1,0.1-0.1,0.1c0-0.1-0.1-0.1-0.1-0.1s-0.1-0.1-0.1-0.1l-0.8-0.8c-0.1,0-0.1-0.2-0.2-0.2c-0.1,0-0.2-0.1-0.3-0.1h-1.9l2.1,3
			H15z"/>
		<path class="st0" d="M10,6.3h4l-3.9,5.2c-0.1,0.2-0.3,0.3-0.4,0.5s-0.2,0.3-0.2,0.4v1.4H17v-2.5h-4.1l3.9-5.1
			C16.9,6.1,16.9,6,17,5.8c0.1-0.2,0-0.3,0-0.5v-1h-7V6.3z"/>
		<rect x="18.5" y="4.3" class="st0" width="3" height="9.5"/>
		<path class="st0" d="M21.2,0.5c-0.2-0.1-0.3-0.3-0.5-0.4C20.5,0,20.3,0,20,0c-0.2,0-0.4,0-0.6,0.1S19,0.3,18.9,0.5
			c-0.2,0.2-0.3,0.3-0.4,0.5c-0.1,0.2-0.1,0.4-0.1,0.6c0,0.2,0,0.4,0.1,0.6c0.1,0.2,0.2,0.4,0.4,0.5C19,2.9,19.2,3,19.4,3.1
			s0.4,0.1,0.6,0.1c0.2,0,0.5,0,0.7-0.1c0.2-0.1,0.4-0.2,0.5-0.4s0.3-0.3,0.4-0.5c0.1-0.2,0.1-0.4,0.1-0.6c0-0.2,0-0.4-0.1-0.6
			C21.5,0.8,21.4,0.6,21.2,0.5z"/>
		<path class="st0" d="M29.5,4.4c-0.1,0.1-0.2,0.2-0.3,0.3l-1.3,4.2c-0.2,0.7-0.4,1.3-0.5,2c-0.1-0.3-0.1-0.7-0.2-1s-0.2-0.7-0.3-1
			l-1.3-4.2c0-0.1-0.1-0.2-0.3-0.3c-0.1-0.1-0.3-0.1-0.5-0.1h-2.3l3.6,9.5h2.5l3.6-9.5H30C29.8,4.3,29.7,4.3,29.5,4.4z"/>
		<path class="st0" d="M39.4,5.1c-0.3-0.3-0.7-0.6-1.2-0.8c-0.5-0.2-1-0.3-1.5-0.3c-0.8,0-1.5,0.1-2.2,0.4c-0.7,0.2-1.3,0.6-1.9,1.1
			l0.5,0.9c0.1,0.1,0.2,0.2,0.3,0.3s0.3,0.1,0.5,0.1c0.2,0,0.4,0,0.6-0.1c0.2-0.1,0.3-0.2,0.5-0.2c0.2-0.1,0.4-0.2,0.6-0.2
			c0.2-0.1,0.5-0.1,0.8-0.1c0.4,0,0.6,0.1,0.9,0.4c0.2,0.2,0.2,0.6,0.2,1.2v0.4c-1,0-1.9,0.1-2.6,0.3c-0.7,0.2-1.2,0.4-1.6,0.7
			c-0.4,0.3-0.7,0.6-0.8,0.9c-0.2,0.3-0.2,0.7-0.2,1c0,0.4,0.1,0.8,0.2,1.1c0.1,0.3,0.3,0.6,0.6,0.8c0.2,0.2,0.5,0.4,0.9,0.5
			c0.3,0.1,0.7,0.2,1.2,0.2c0.3,0,0.6,0,0.9-0.1s0.5-0.1,0.7-0.2s0.5-0.2,0.7-0.4c0.2-0.1,0.4-0.3,0.7-0.5l0.2,0.5
			c0.1,0.2,0.2,0.5,0.3,0.6s0.3,0.2,0.6,0.2h1.4V7.7c0-0.5-0.1-1-0.3-1.5C40,5.8,39.7,5.4,39.4,5.1z M37.5,11c0,0.3-0.5,0.5-0.7,0.6
			c-0.3,0.1-0.5,0.2-0.9,0.2c-0.3,0-0.6-0.1-0.7-0.2c-0.2-0.1-0.2-0.4-0.2-0.7c0-0.2,0-0.3,0.1-0.4s0.2-0.3,0.4-0.4
			c0.2-0.1,0.4-0.2,0.8-0.3c0.4-0.1,0.8-0.1,1.3-0.1V11z"/>
		<path class="st0" d="M47,11.4c-0.1,0-0.1-0.1-0.2-0.1c-0.1,0-0.1,0-0.2,0s-0.1,0-0.1,0.1c-0.1,0-0.1,0.1-0.2,0.1
			c-0.1,0-0.2,0-0.3,0c-0.2,0-0.3-0.1-0.4-0.2c-0.1-0.1-0.1-0.3-0.1-0.5V6.3H48v-2h-2.5v-3H44c-0.3,0-0.5,0.3-0.6,0.5l-0.5,2.3
			l-1.4,0.3v1.1c0,0.2,0,0.4,0.1,0.5s0.1,0.2,0.3,0.2h0.6v4.7c0,0.4,0.1,0.8,0.3,1.1c0.1,0.3,0.3,0.6,0.6,0.9s0.5,0.4,0.9,0.5
			c0.3,0.1,0.7,0.2,1.2,0.2c0.5,0,0.9-0.1,1.4-0.2s0.9-0.3,1.2-0.6l-0.8-1.3C47.1,11.5,47,11.4,47,11.4z"/>
		<path class="st0" d="M56,5.2c-0.4-0.4-0.8-0.6-1.3-0.8c-0.5-0.2-1.1-0.3-1.7-0.3c-0.7,0-1.4,0.1-1.9,0.4c-0.6,0.2-1.1,0.6-1.4,1
			c-0.4,0.4-0.7,0.9-0.9,1.5c-0.2,0.6-0.3,1.1-0.3,1.8c0,0.8,0.1,1.6,0.4,2.2s0.6,1.1,1,1.6c0.4,0.4,0.9,0.7,1.5,0.9
			c0.6,0.2,1.2,0.3,1.8,0.3c0.3,0,0.7,0,1-0.1c0.4,0,0.7-0.1,1.1-0.2c0.4-0.1,0.7-0.3,1-0.5s0.6-0.5,0.9-0.8l-0.8-1
			c-0.1-0.2-0.3-0.2-0.5-0.2c-0.2,0-0.3,0-0.5,0.1c-0.2,0.1-0.3,0.2-0.5,0.3c-0.2,0.1-0.4,0.2-0.6,0.3c-0.2,0.1-0.5,0.1-0.8,0.1
			c-0.6,0-1.1-0.2-1.5-0.6s-0.6-0.7-0.7-1.7h5.4c0.1,0,0.2,0,0.3,0s0.1-0.1,0.2-0.1c0-0.1,0.1-0.2,0.1-0.3c0-0.1,0-0.3,0-0.5
			c0-0.7-0.1-1.3-0.3-1.8S56.4,5.5,56,5.2z M51.2,7.8c0.1-0.5,0.3-1,0.6-1.3S52.5,6,53,6c0.3,0,0.6,0,0.8,0.2s0.4,0.2,0.5,0.4
			c0.1,0.2,0.2,0.4,0.3,0.6c0.1,0.2,0.1,0.7,0.1,0.7H51.2z"/>
		<rect x="58.5" y="0.3" class="st0" width="3" height="13.5"/>
	</g>
	<g>
		<path class="st1" d="M65.6,11c-0.1-0.1-0.3-0.2-0.5-0.3s-0.4-0.1-0.6-0.1c-0.2,0-0.4,0-0.6,0.1s-0.4,0.2-0.5,0.3s-0.3,0.3-0.3,0.5
			c-0.1,0.2-0.1,0.4-0.1,0.6c0,0.2,0,0.4,0.1,0.6s0.2,0.4,0.3,0.5s0.3,0.2,0.5,0.3s0.4,0.1,0.6,0.1c0.2,0,0.4,0,0.6-0.1
			s0.4-0.2,0.5-0.3s0.3-0.3,0.3-0.5c0.1-0.2,0.1-0.4,0.1-0.6c0-0.2,0-0.4-0.1-0.6C65.8,11.3,65.7,11.2,65.6,11z"/>
		<path class="st1" d="M73.9,10.8c-0.2,0-0.3,0-0.4,0.1s-0.2,0.2-0.4,0.3c-0.1,0.1-0.3,0.2-0.5,0.3s-0.4,0.1-0.8,0.1
			c-0.6,0-1.1-0.2-1.4-0.7s-0.5-1.2-0.5-2.1c0-0.4,0-0.8,0.1-1.1s0.2-0.6,0.4-0.9c0.2-0.2,0.4-0.4,0.6-0.5s0.5-0.2,0.9-0.2
			c0.3,0,0.5,0,0.7,0.1c0.2,0.1,0.3,0.1,0.5,0.2s0.3,0.2,0.4,0.2c0.1,0.1,0.2,0.1,0.4,0.1c0.1,0,0.3,0,0.3-0.1
			c0.1-0.1,0.2-0.1,0.2-0.2l0.7-1c-0.4-0.4-0.9-0.8-1.5-1c-0.6-0.2-1.2-0.4-1.9-0.4c-0.8,0-1.4,0.1-2,0.4s-1.1,0.6-1.5,1
			S67.6,6.4,67.4,7c-0.2,0.6-0.3,1.2-0.3,1.9c0,0.8,0.1,1.5,0.3,2.1c0.2,0.6,0.5,1.1,0.9,1.5c0.4,0.4,0.8,0.7,1.4,0.9
			c0.5,0.2,1.1,0.3,1.6,0.3c0.3,0,0.6,0,1-0.1c0.3,0,0.7-0.1,1-0.2s0.7-0.3,1-0.5c0.3-0.2,0.6-0.5,0.9-0.8l-0.8-1
			C74.3,10.9,74.1,10.8,73.9,10.8z"/>
		<path class="st1" d="M83.9,5.3c-0.4-0.4-0.9-0.7-1.5-1c-0.6-0.2-1.2-0.3-1.9-0.3c-0.7,0-1.4,0.1-1.9,0.3c-0.6,0.2-1.1,0.5-1.5,1
			c-0.4,0.4-0.8,0.9-1,1.5c-0.2,0.6-0.3,1.3-0.3,2c0,0.7,0.1,1.4,0.3,2c0.2,0.6,0.6,1.1,1,1.5c0.4,0.4,0.9,0.7,1.5,1
			c0.6,0.2,1.2,0.3,1.9,0.3c0.7,0,1.4-0.1,1.9-0.3c0.6-0.2,1.1-0.5,1.5-1c0.4-0.4,0.7-0.9,1-1.5c0.2-0.6,0.3-1.3,0.3-2
			c0-0.7-0.1-1.4-0.3-2C84.6,6.3,84.3,5.8,83.9,5.3z M81.9,10.9c-0.3,0.5-0.8,0.7-1.4,0.7c-0.7,0-1.1-0.2-1.4-0.7
			c-0.3-0.5-0.5-1.1-0.5-2.1c0-0.9,0.2-1.6,0.5-2.1c0.3-0.4,0.8-0.7,1.4-0.7c0.6,0,1.1,0.2,1.4,0.7c0.3,0.4,0.5,1.1,0.5,2.1
			C82.3,9.8,82.2,10.5,81.9,10.9z"/>
		<path class="st1" d="M99.8,6.1c-0.1-0.4-0.3-0.8-0.6-1.1c-0.3-0.3-0.6-0.5-1-0.7c-0.4-0.2-0.9-0.2-1.4-0.2c-0.3,0-0.6,0-0.9,0.1
			c-0.3,0.1-0.6,0.2-0.8,0.3c-0.3,0.1-0.5,0.3-0.7,0.5c-0.2,0.2-0.4,0.4-0.6,0.7c-0.2-0.5-0.5-0.9-0.8-1.2s-0.8-0.4-1.4-0.4
			c-0.3,0-0.5,0-0.7,0.1c-0.2,0.1-0.4,0.1-0.6,0.2c-0.2,0.1-0.4,0.2-0.5,0.4S89.3,5,89.2,5.2L89,4.7c-0.1-0.3-0.3-0.4-0.7-0.4h-1.8
			v9.5h3v-7c0-0.2,0.4-0.3,0.6-0.5s0.4-0.2,0.7-0.2c0.4,0,0.7,0.1,0.9,0.3C91.9,6.7,92,7.1,92,7.6v6.2h3V7.6c0-0.5,0-0.8,0.3-1.1
			c0.2-0.2,0.6-0.4,1-0.4c0.8,0,1.3,0.5,1.3,1.4v6.2h2.5V7.6C100,7,100,6.5,99.8,6.1z"/>
	</g>
</g>
</svg>
