<?xml version="1.0" encoding="utf-8"?>
<!-- Generator: Adobe Illustrator 19.2.1, SVG Export Plug-In . SVG Version: 6.00 Build 0)  -->
<svg version="1.1" id="Layer_1" xmlns="http://www.w3.org/2000/svg" xmlns:xlink="http://www.w3.org/1999/xlink" x="0px" y="0px"
	 viewBox="0 0 200 200" style="enable-background:new 0 0 200 200;" xml:space="preserve">
<style type="text/css">
	.st0{fill:#C1C1C6;}
	.st1{fill:#211C56;}
	.st2{fill:#F00776;}
</style>
<g>
	<g>
		<path class="st0" d="M192.1,61.1c-5-11.9-12.2-22.6-21.4-31.8s-19.9-16.4-31.8-21.4C126.6,2.6,113.5,0,100,0S73.4,2.6,61.1,7.9
			c-11.9,5-22.6,12.2-31.8,21.4S12.9,49.2,7.9,61.1C2.6,73.4,0,86.5,0,100s2.6,26.6,7.9,38.9c5,11.9,12.2,22.6,21.4,31.8
			s19.9,16.4,31.8,21.4c12.3,5.2,25.4,7.9,38.9,7.9s26.6-2.6,38.9-7.9c11.9-5,22.6-12.2,31.8-21.4s16.4-19.9,21.4-31.8
			c5.2-12.3,7.9-25.4,7.9-38.9S197.4,73.4,192.1,61.1z M100,197.1c-53.5,0-97.1-43.5-97.1-97.1S46.5,2.9,100,2.9
			s97.1,43.5,97.1,97.1S153.5,197.1,100,197.1z"/>
	</g>
</g>
<g>
	<path class="st1" d="M87.8,117.6v9.2h-9.2v-9.2H87.8 M88.6,115.2H77.7c-0.9,0-1.6,0.8-1.6,1.6v10.9c0,0.9,0.7,1.5,1.6,1.5h10.9
		c0.9,0,1.5-0.6,1.5-1.5v-10.9C90.2,116,89.5,115.2,88.6,115.2L88.6,115.2z"/>
	<g>
		<g>
			<path class="st1" d="M87.8,81.7h-9.2v-9.2h7.7l2.1-2.4H77.7c-0.9,0-1.6,0.6-1.6,1.5v10.9c0,0.9,0.7,1.6,1.6,1.6h10.9
				c0.9,0,1.5-0.8,1.5-1.6v-7.1l-2.4,2.8V81.7z"/>
		</g>
		<g>
			<path class="st2" d="M91.7,69.9c-0.5-0.4-1.3-0.4-1.7,0.1l-6.2,7.1L82,75.4c-0.5-0.5-1.2-0.5-1.7,0c-0.5,0.5-0.5,1.2,0,1.7
				l2.7,2.8c0.2,0.2,0.5,0.4,0.9,0.4c0,0,0,0,0,0c0.3,0,0.7-0.2,0.9-0.4l7.1-8.1C92.3,71.1,92.2,70.4,91.7,69.9z"/>
		</g>
	</g>
	<g>
		<g>
			<path class="st1" d="M87.8,104.3h-9.2V95h7.7l2.1-2.4H77.7c-0.9,0-1.6,0.6-1.6,1.5v10.9c0,0.9,0.7,1.6,1.6,1.6h10.9
				c0.9,0,1.5-0.8,1.5-1.6v-7.1l-2.4,2.8V104.3z"/>
		</g>
		<g>
			<path class="st2" d="M91.7,92.5c-0.5-0.4-1.3-0.4-1.7,0.1l-6.2,7.1L82,97.9c-0.5-0.5-1.2-0.5-1.7,0c-0.5,0.5-0.5,1.2,0,1.7
				l2.7,2.8c0.2,0.2,0.5,0.4,0.9,0.4c0,0,0,0,0,0c0.3,0,0.7-0.2,0.9-0.4l7.1-8.1C92.3,93.7,92.2,92.9,91.7,92.5z"/>
		</g>
	</g>
	<path class="st1" d="M123.2,75.2H98.9c-0.7,0-1.2-0.5-1.2-1.2c0-0.7,0.5-1.2,1.2-1.2h24.2c0.7,0,1.2,0.5,1.2,1.2
		C124.4,74.6,123.8,75.2,123.2,75.2z"/>
	<path class="st1" d="M112.7,81H98.9c-0.7,0-1.2-0.5-1.2-1.2c0-0.7,0.5-1.2,1.2-1.2h13.8c0.7,0,1.2,0.5,1.2,1.2
		C113.9,80.4,113.4,81,112.7,81z"/>
	<path class="st1" d="M123.2,97.5H98.9c-0.7,0-1.2-0.5-1.2-1.2c0-0.7,0.5-1.2,1.2-1.2h24.2c0.7,0,1.2,0.5,1.2,1.2
		C124.4,96.9,123.8,97.5,123.2,97.5z"/>
	<path class="st1" d="M112.7,103.3H98.9c-0.7,0-1.2-0.5-1.2-1.2c0-0.7,0.5-1.2,1.2-1.2h13.8c0.7,0,1.2,0.5,1.2,1.2
		C113.9,102.7,113.4,103.3,112.7,103.3z"/>
	<g>
		<path class="st2" d="M156.1,93.3l-0.5-0.5c-1.3-1.3-2.9-2-4.7-2c-1.8,0-3.5,0.7-4.7,2l-33.9,33.9c-2,2-4.9,10.4-5.8,12.9
			c-0.2,0.7,0,1.4,0.4,1.9l0.5,0.5c0.3,0.3,0.8,0.5,1.3,0.5c0.2,0,0.4,0,0.6-0.1c2.5-0.8,10.8-3.7,12.9-5.8l33.9-33.9
			C158.7,100.1,158.7,95.9,156.1,93.3z M120.9,132.8l-4.8-4.8l27.9-27.9l4.8,4.8L120.9,132.8z M114.4,129.8l4.7,4.7
			c-1.4,0.9-4.8,2.3-8.2,3.6C112.1,134.5,113.5,131.1,114.4,129.8z M153.5,100.2l-3,3l-4.8-4.8l3-3c0.6-0.6,1.3-0.9,2.1-0.9
			c0.8,0,1.6,0.3,2.1,0.9l0.5,0.5c0.6,0.6,0.9,1.3,0.9,2.1S154.1,99.6,153.5,100.2z"/>
	</g>
	<g>
		<path class="st1" d="M110.3,123.7H98.9c-0.7,0-1.2,0.5-1.2,1.2c0,0.7,0.5,1.2,1.2,1.2h8.9L110.3,123.7z"/>
	</g>
	<g>
		<path class="st1" d="M116.2,117.8H98.9c-0.7,0-1.2,0.5-1.2,1.2c0,0.7,0.5,1.2,1.2,1.2h14.9L116.2,117.8z"/>
	</g>
</g>
<g>
	<path class="st1" d="M136.4,142.5c0,3.9-3.1,7-7,7H70.6c-3.9,0-7-3.1-7-7v-85c0-3.9,3.1-7,7-7h58.8c3.9,0,7,3.1,7,7v39.3l3-3V57.5
		c0-5.5-4.5-10-10-10H70.6c-5.5,0-10,4.5-10,10v85c0,5.5,4.5,10,10,10h58.8c5.5,0,10-4.5,10-10v-17.4l-3,3V142.5z"/>
</g>
</svg>
